<?xml version="1.0" encoding="iso-8859-1"?>
<svg version="1.1" id="Capa_1" xmlns="http://www.w3.org/2000/svg" xmlns:xlink="http://www.w3.org/1999/xlink" x="0px" y="0px"
	 viewBox="0 0 150 150" style="enable-background:new 0 0 150 150;" xml:space="preserve">
    <style> path { stroke: blue; fill: blue; fill-opacity: 0.4; } </style>

    

    <symbol xmlns="http://www.w3.org/2000/svg" id="rough_exchange-alt" viewBox="0 0 52 52">
  <title>exchange-alt</title>
  <path class="rough-outline" fill="none" d="M-1.3 16.2M0.1 16.8C0.1 16.1 0 15.5 -0.1 15.3M0 16.8C0 16.2 0 15.5 0 15.2M0 15.2C1.5 12.5 1.7 11.6 2.5 14.3M-1.3 15.4C-0.2 13 0.7 14.3 2.7 11.4M3.9 12.3C12.1 13.4 20.7 13.2 39.5 11.9M2.6 12.6C16.4 12.3 30.6 13.1 37.6 12.6M38.3 12.9C38.4 11.1 38.5 9.7 38.6 8M38.4 12.8C38.3 11.4 38.6 10 38.3 8.1M38.4 8C37.3 6.5 42.5 4.1 42.9 7.1M37.3 9.5C39 7 41 6.1 42.9 7.7M42.3 6C44.8 8.2 46.5 9.1 50.6 13.4M42.5 6.4C45 9 47.6 11.5 50.3 14.1M50.5 14.3C52 15.1 52.7 17.4 49 18.1M49.6 14.2C49.8 13.7 51.1 18.5 50.5 18.4M49.6 18C48.9 18.7 47.3 21.3 43.3 26.4M50.6 17.7C48.4 20.4 45.8 23.1 42.8 25.8M42.5 25.7C40.2 26.9 37.6 25.8 38.1 25M43.3 27.1C42.5 26.6 38.7 26.6 39.5 23.8M38.6 24.2C38.7 22.1 38.6 20.3 38.2 19.3M38.4 24.1C38.5 22.1 38.3 20.3 38.3 19.2M37.9 19.4C29.2 19.9 18.3 19.8 3.7 17.9M37.9 19.6C26.7 18.7 14.1 19.8 2.2 19.6M2.4 19.2C1.6 20.3 -1.5 18.7 -0.9 16.1M2 17.6C-0.1 17.6 -1.4 18.2 -1.8 17.4M0 16.8C0 16.8 0 16.8 0 16.8M0 16.8C0 16.8 0 16.8 0 16.8M47.9 31.5M50 33.2C33.8 32.4 21.4 31.6 12.8 31.4M48.4 31.5C37.9 32.5 27.9 31.2 12.6 31.4M12.9 32.3C13.1 30.1 12.8 28.4 13.1 27.5M12.7 32.1C12.8 30.5 12.9 28.8 12.7 27.3M12.8 27.2C12.2 24.2 10 25.3 8.5 24.2M14.3 25.9C13.6 26.5 11.1 25.8 9.8 24.6M8.4 25.6C5.7 28 1.7 31.1 0.6 33.6M9 25.1C6.2 27.3 4.4 29.6 0.5 33.2M0.7 33.5C0.5 34.2 -1.4 35.9 0 37.7M1.3 32.2C-1.4 35.4 -0.6 36.5 1.4 36.7M1 36.3C3.5 40.1 7.1 42.7 9.1 45.2M0.7 36.9C2.9 38.8 5 41 9 45.1M8.7 44.9C9 47.2 14.3 44.6 13.3 43.7M7.1 46.1C9.9 46.8 13.8 45.3 13.8 43.7M12.8 43.2C12.7 41.6 13.1 39.6 12.9 38.4M12.8 43.1C12.9 41.3 12.7 39.7 13 38.4M12.9 37.8C26.1 38.7 40.4 38.3 50.1 39.9M12.4 38.9C25.1 38.5 36.8 38 48 37.8M48.8 38.4C48.9 37.2 49.8 38.6 52.8 35.4M48 38C50.6 39 51.2 37.7 51.8 35.3M51.2 36C51.1 35.4 51.2 34.9 51.3 34.3M51.2 36C51.2 35.4 51.1 35 51.2 34.4M51.2 34.4C49.6 33.5 49.8 32.8 49.7 30.5M52.7 33.5C49.9 34.4 48.5 32.2 49.6 33.7M48.8 32C48.8 32 48.8 32 48.8 32M48.8 32C48.8 32 48.8 32 48.8 32"/>
  <path class="rough-mask" stroke="none" d="M0 16.8v-1.6c0 -1.3 1.1 -2.4 2.4 -2.4h36V8c0 -2.1 2.6 -3.2 4.1 -1.7l8 8c0.9 0.9 0.9 2.5 0 3.4l-8 8C41 27.2 38.4 26.1 38.4 24v-4.8H2.4c-1.3 0 -2.4 -1.1 -2.4 -2.4zm48.8 15.2H12.8v-4.8c0 -2.1 -2.6 -3.2 -4.1 -1.7l-8 8c-0.9 0.9 -0.9 2.5 0 3.4l8 8C10.2 46.4 12.8 45.3 12.8 43.2v-4.8h36c1.3 0 2.4 -1.1 2.4 -2.4v-1.6c0 -1.3 -1.1 -2.4 -2.4 -2.4z"/>
</symbol>

    <use xlink:href="#rough_exchange-alt"></use>

  </svg>
