<?xml version="1.0" encoding="iso-8859-1"?>
<svg version="1.1" id="Capa_1" xmlns="http://www.w3.org/2000/svg" xmlns:xlink="http://www.w3.org/1999/xlink" x="0px" y="0px"
	 viewBox="0 0 150 150" style="enable-background:new 0 0 150 150;" xml:space="preserve">
    <style> path { stroke: blue; fill: none; } </style>

    

    <symbol xmlns="http://www.w3.org/2000/svg" id="rough_circle" viewBox="0 0 52 52">
  <title>circle</title>
  <path class="rough-outline" fill="none" d="M25.3 0.3M25.6 0.8C12.5 -0.6 0 12.2 0.4 24.1M24.5 2C12.1 1.3 1.1 11.5 -0.1 26.9M0.8 25.6C0.9 40.3 11.7 51.8 25.7 51.1M0.1 25.3C2.3 39.8 11 48.6 24.2 51.8M25.6 50.4C38.8 50.9 51.2 38.3 50.1 27M25.7 49.1C37.8 49.3 49.9 39.6 50.1 24.8M50.4 25.6C50.4 10.9 38.5 0.6 25.2 1.6M51.7 26.5C49.4 12.2 40.6 0.2 25.8 1M25.6 0.8C25.6 0.8 25.6 0.8 25.6 0.8M25.6 0.8C25.6 0.8 25.6 0.8 25.6 0.8M25.9 45.1M25.6 45.6C13.3 45.9 6.8 38 4.2 26.3M26.2 46.6C14.8 46.7 4.7 37.9 6.2 24M5.6 25.6C5.4 15 14.5 4.6 25.2 6.5M5.1 26.4C4.1 13.1 15.4 7.3 25.1 7.3M25.6 5.6C36.9 6 47.1 15.9 47.2 24.4M26.3 4.2C37 6.2 44.9 15.5 45.9 26.3M45.6 25.6C45.8 36.6 36.1 46.2 24.1 45.1M45 24.4C46.9 35.6 37.5 44.8 23.8 46.5M25.6 45.6C25.6 45.6 25.6 45.6 25.6 45.6M25.6 45.6C25.6 45.6 25.6 45.6 25.6 45.6"/>
  <path class="rough-mask" stroke="none" d="M25.6 0.8C11.9 0.8 0.8 11.9 0.8 25.6s11.1 24.8 24.8 24.8 24.8 -11.1 24.8 -24.8S39.3 0.8 25.6 0.8zm0 44.8c-11.1 0 -20 -9 -20 -20S14.6 5.6 25.6 5.6s20 9 20 20 -9 20 -20 20z"/>
</symbol>

    <use xlink:href="#rough_circle"></use>

</svg>
