<?xml version="1.0" encoding="iso-8859-1"?>
<svg version="1.1" id="Capa_1" xmlns="http://www.w3.org/2000/svg" xmlns:xlink="http://www.w3.org/1999/xlink" x="0px" y="0px"
	 viewBox="0 0 150 150" style="enable-background:new 0 0 150 150;" xml:space="preserve">
    <style> path { stroke: #000000; fill: url(#hachure); } </style>

    <pattern id="hachure" x="0" y="0" width="60" height="60" patternUnits="userSpaceOnUse">
          <path style="stroke-opacity: 0.7; stroke-width: 0.4; fill: none;" d="M60 60C60 60 60 60 60 60M60 60C60 60 60 60 60 60M61.2 50C57.9 53.1 56.3 55.7 55.1 59.4M60.2 49.6C58.9 51.8 57.9 54 53.7 60.3M60.2 39.5C57.8 46.1 51.9 53.2 46.7 60.6M59 40.5C57.2 43.9 55.1 48.9 48.3 60.8M60.9 31.4C54.4 36.1 51.5 44.7 42.4 59.8M60.7 29.7C55.6 37.7 52.9 43.1 42.7 60.9M60.7 18.3C57.1 26.6 49.6 37.8 34.7 61.6M60.2 19.8C55.3 29.4 49.5 37.4 37.1 60.4M59.5 12.3C48.3 29.9 37 51 32.9 58.6M59.6 9.4C49.9 28.3 39.3 46.5 30.6 60M59.9 -1.3C49.3 18.4 41.2 33.2 25.7 60M59.2 0C50.4 18.9 39.2 36.5 26 59.5M57.1 -3.5C43.8 21.5 30.6 42.2 18.4 61.7M55 -1.9C46.7 15.4 36.3 31.2 20.3 59.4M48.6 -0.7C37.2 20.7 25.3 41.8 14.1 59.9M49.6 -1.4C42.1 11.8 33.9 27 13.4 59.3M43.3 -1.5C33.4 14.4 23.7 29.1 6.7 58.8M43.9 -1.6C33.7 16.2 23.4 32.2 8.3 60.6M36.3 -3.8C32.4 12 20.6 25 2 61.8M37.5 -1.4C27.7 17.6 17.3 34.9 3 59.7M32.8 -3.2C22.1 20.3 7.5 39 -3.8 60M32.7 -2.3C19.2 19.7 7.1 40.5 -2.3 58M27.5 -2C18.7 9.6 9.1 25.1 -4.1 47.2M26.1 -2.2C14.8 17.8 4.5 36.9 -3.3 49.2M23 -2.9C10.1 15.5 2.7 30.5 -3.1 39.1M20.8 -2.8C15.3 6.3 10.1 15.9 -2.7 39.3M15.7 -4.6C10.6 9.6 1.8 18.1 -0.7 26.8M15.7 -3.2C11.3 4.4 8.5 9.7 -2 28.3M9.2 -2.9C5 3.9 2.3 10.5 -3.2 16.6M9.5 -2.1C5.5 5.2 1 11.5 -3.3 18.5M4.4 -1.4C1.5 -0.1 0.8 4.6 -3.4 8.4M3.5 -2.3C2.3 1 0.2 3.9 -2.8 9.4"></path>
        </pattern>

    <symbol xmlns="http://www.w3.org/2000/svg" id="rough_github" viewBox="0 0 50 52">
  <title>github</title>
  <path class="rough-outline" fill="none" d="M16.9 41.1M16.6 39.7C15.1 40.5 15.2 40.1 17.5 40.9M15.2 40.2C15.4 39.7 16.3 39.2 16.1 39M16.1 40.1C17.4 41.4 15.4 41.2 15.6 40.3M14.9 39.5C17.5 40.3 17.3 40 13.9 41.2M15.5 39.7C14.1 39.6 17 38.9 17 37.8M14.4 40.8C14.4 40.2 17.3 40.3 16.4 39.9M16 39.3C15.5 39.7 15.7 38.5 15.2 41.1M16.6 40.7C14.9 40.8 18.4 38.6 15 39.7M16.6 39.7C16.6 39.7 16.6 39.7 16.6 39.7M16.6 39.7C16.6 39.7 16.6 39.7 16.6 39.7M14.8 40.8M13.5 39.2C13.3 38.6 12 40.7 13.3 38.5M14.7 39.1C11.8 38.8 13.2 40.6 15.4 39.6M13.9 39.7C14.3 39.4 13.6 39.7 13.6 40.9M12.6 38.9C13.5 39.6 15.6 39.5 13.4 38M14.5 39.5C15.9 38.6 14.1 39 14.8 40.2M14.7 39C13.5 40.6 14.3 39.4 13.3 37.2M14.1 39C14.9 37.7 13.6 39.3 14.7 38.4M15.4 38.1C13.4 39.2 14.5 40.6 15.1 38M13.5 39.2C13.5 39.2 13.5 39.2 13.5 39.2M13.5 39.2C13.5 39.2 13.5 39.2 13.5 39.2M19 40.4M17.9 39C17.1 39.7 18.9 39 18.8 39.8M18.2 40.4C17.5 39.7 16.5 37.9 17.9 39.2M17.4 39.5C17.6 39.4 16.4 39.9 19.4 40.3M16.1 40.6C16.7 39.3 18.2 40.1 17.2 40.8M18 39.8C17.6 38.2 17.5 40.3 18.1 39.1M17.5 39.8C18.3 39.3 20.3 39.8 17.3 39.9M18.5 39.3C19.4 39.6 18.6 40.4 18.6 37.6M18.9 40.7C18.3 37.9 18.5 40.6 19.7 39.3M17.9 39C17.9 39 17.9 39 17.9 39M17.9 39C17.9 39 17.9 39 17.9 39M25.9 2.1M24.5 0.8C10.1 1.4 0.8 12.5 -1.6 23.9M23.8 2.2C12.1 0.1 0.8 10.2 -0.7 23.7M0 25.2C-0.4 35.4 7.9 46.1 18.4 49.6M-0.6 25.9C-1.7 36.1 7.3 45.4 18.1 49M16.9 49.1C17.8 49.4 19.4 49 17.4 48.6M16 49.9C16.8 48.8 18.2 49.8 19.8 48.1M18.6 47.9C18.8 46.9 17.6 43.7 18 42.8M19.2 47C17.3 46.5 16.8 44.1 19.3 43.4M18.6 41.8C18.2 40.2 12.7 43.1 10.2 38.2M19.7 43C18.9 40.1 12.3 42.5 9.2 38.4M10.1 38.8C11.7 39.1 8.3 37.1 7 35M9.7 39.9C10.2 38.8 7.5 36.8 5.8 34.5M7.3 35.1C6.5 35.5 4.9 33.7 9.1 34.8M7 34.6C5.5 34.5 5.3 32.6 8.4 34.4M7.5 33.6C8.5 32.8 11.1 34.6 12 35.5M8.2 34.3C6.5 33.9 9.8 34.1 12.6 35.1M11.4 36.2C12 39.2 17.9 40.4 18.1 39.4M12.1 36.2C13.9 39.2 16.5 37.4 17 38.8M18.7 38.3C20.2 35.5 19.8 35.1 21.3 35M18.2 38.2C17.8 38.2 19.4 36.3 20.1 36.2M20.3 34.9C14.1 33 9.8 33.4 10.3 23M20.9 35C16.2 34.1 9.3 33 8.1 23.1M9.1 23.8C7.9 20.7 9.4 19.3 11.4 18.2M7.9 23C7.3 20.2 8.9 20.5 9.9 16.4M11.5 17.9C11.2 17.8 10.6 15.4 12.6 10.2M12.6 16.7C10.7 18.4 10.2 13.2 12.2 11.1M11.8 11.1C12.8 10.4 18.1 12.2 19.3 13M10.7 10.9C12.8 12.1 18.6 15.1 19.6 15.5M18.7 13.8C21.4 13 22.2 13.6 24.8 12.1M18.8 13.7C19.1 11.7 24.6 13.2 25.4 12.1M25 12.9C25.6 11.3 29.8 11.9 30 12.9M24.4 11.5C25.3 14.1 28.4 12.3 31.6 15M31.3 13.8C29.8 15 35.5 11.3 36.8 10.8M32.5 12.7C31.8 12.5 37.7 11.8 37.2 11.6M38.2 11.1C39.7 16.1 39 16.5 39.2 17.7M38.1 10.2C38.1 13.7 37.4 18.7 37.8 17M38.5 17.9C39.7 19.2 41.2 21.1 41.2 22.9M39.8 17C39.7 21.3 41.5 22.9 40.3 23.6M41.1 23.8C41.3 34.2 35.4 34.6 31.2 34M39.7 22.3C40.8 32.6 35.3 32.5 27.8 36.4M29.6 34.9C31 34.7 30.5 37.9 32.8 40.6M30.4 35.7C30.9 37.2 29.7 37.9 30.1 41M31.3 39.5C32.5 43.7 31.4 45.7 32.7 47.2M29.8 38.5C32.3 44.3 33.1 47.2 29.7 48.2M31.3 47.9C30.2 48.1 30.3 50.1 32.8 49.5M32.5 49.3C32.2 50.3 30.6 50.3 32.4 48.6M33 49.1C41.2 44.4 50.5 35.8 48.3 23.9M33.2 50.2C42.4 45.2 49.8 37.8 48.9 25.6M49.6 25.2C51.2 12 39 -0.2 25.6 -0.7M51 24.5C50 10.5 37.4 2.3 26.1 2.4M24.5 0.8C24.5 0.8 24.5 0.8 24.5 0.8M24.5 0.8C24.5 0.8 24.5 0.8 24.5 0.8M10.1 35.3M9.7 35.3C10.5 35.5 9.5 35.4 8.8 34.5M9.6 34.5C9.8 34.8 9.3 34.1 9.1 36.8M9.8 35.8C11.3 36.9 11.8 37.3 9.5 36.6M8.5 36.2C9.2 34.4 10.8 34.7 9.5 37.3M10.3 35.9C10.2 36.9 10 34.3 10 35.6M11.5 36.4C10 35.9 8.9 36.3 11.9 36M10.2 35.4C9.4 35.8 9.6 34.6 10.8 35.3M11.1 36.2C10.1 33.9 8.5 36.4 9.6 34.4M9.7 35.3C9.7 35.3 9.7 35.3 9.7 35.3M9.7 35.3C9.7 35.3 9.7 35.3 9.7 35.3M8.6 35.8M8.6 34.5C8.1 34.8 8.1 34.5 10 34.7M8 35.9C8.9 33.7 10.1 36.6 8 33.8M8.8 34.9C8.8 35.1 10.3 34.3 8.9 35.1M10.3 36.5C9.3 36.7 9.3 33.7 7.6 35.9M9.2 34.8C9.5 34.2 9.1 35.8 10.5 34.4M9.4 35.1C8 36.2 10.3 33.8 8.4 32.7M9 34.4C9.6 33.2 8.8 33 9.8 35.4M9.3 35.4C10.2 34.8 8.9 33.8 9.6 33.3M8.6 34.5C8.6 34.5 8.6 34.5 8.6 34.5M8.6 34.5C8.6 34.5 8.6 34.5 8.6 34.5M11.9 36.8M11.8 38.1C12.2 38.9 11 38.1 13.3 38.7M12.4 38.9C13.3 39.9 10.5 39.3 11.2 38.2M11.9 38.7C12.3 39.1 13.2 38.9 12.3 40.3M12.5 39.7C10.4 40.6 10.8 37.6 13.3 40.5M12.6 38.8C11.1 37.8 13.5 38.8 12.8 39.6M11.9 38.9C12 38.7 13.7 38.1 13.9 37.6M12.5 38.2C13.1 39.4 11.6 38.2 11.2 38.6M13.1 37.1C14 36.2 13.3 36.9 11.5 37M11.8 38.1C11.8 38.1 11.8 38.1 11.8 38.1M11.8 38.1C11.8 38.1 11.8 38.1 11.8 38.1M9.7 35.3M10.7 36.6C11.5 37.8 9.9 37.3 11.5 36.8M10.8 36.8C10.1 37.5 8.8 38.7 11 38.9M10.7 37.2C11.7 37.9 12 38.9 10.3 36.1M9.7 36.5C9.9 36.7 12.5 35.8 12.6 35.6M11.3 37.4C11.2 36.1 10.1 36.3 10.5 36.5M9.8 36.5C9.7 38.5 13.1 37.9 12.7 38.1M11.3 36.8C11.5 35.2 11.3 35.8 11.7 36.6M10.9 37.8C9.7 36.9 9.7 35.5 12.3 36.7M10.7 36.6C10.7 36.6 10.7 36.6 10.7 36.6M10.7 36.6C10.7 36.6 10.7 36.6 10.7 36.6"/>
  <path class="rough-mask" stroke="none" d="M16.6 39.7c0 0.2 -0.2 0.4 -0.5 0.4 -0.3 0 -0.6 -0.1 -0.6 -0.4 0 -0.2 0.2 -0.4 0.5 -0.4 0.3 0 0.6 0.1 0.6 0.4zm-3.1 -0.5c-0.1 0.2 0.1 0.4 0.4 0.5 0.3 0.1 0.6 0 0.6 -0.2s-0.1 -0.4 -0.4 -0.5c-0.3 -0.1 -0.6 0 -0.6 0.2zm4.4 -0.2c-0.3 0.1 -0.5 0.3 -0.5 0.5 0 0.2 0.3 0.3 0.6 0.3 0.3 -0.1 0.5 -0.3 0.5 -0.5 0 -0.2 -0.3 -0.3 -0.6 -0.3zM24.5 0.8C10.6 0.8 0 11.3 0 25.2c0 11.1 7 20.6 16.9 23.9 1.3 0.2 1.7 -0.6 1.7 -1.2 0 -0.6 0 -4 0 -6.1 0 0 -7 1.5 -8.5 -3 0 0 -1.1 -2.9 -2.8 -3.7 0 0 -2.3 -1.6 0.2 -1.5 0 0 2.5 0.2 3.9 2.6 2.2 3.9 5.9 2.8 7.3 2.1 0.2 -1.6 0.9 -2.7 1.6 -3.4 -5.6 -0.6 -11.2 -1.4 -11.2 -11.1 0 -2.8 0.8 -4.1 2.4 -5.9 -0.3 -0.7 -1.1 -3.3 0.3 -6.8 2.1 -0.7 6.9 2.7 6.9 2.7 2 -0.6 4.2 -0.9 6.3 -0.9s4.3 0.3 6.3 0.9c0 0 4.8 -3.4 6.9 -2.7 1.4 3.5 0.5 6.1 0.3 6.8 1.6 1.8 2.6 3.2 2.6 5.9 0 9.7 -5.9 10.4 -11.5 11.1 0.9 0.8 1.7 2.3 1.7 4.6 0 3.4 0 7.5 0 8.4 0 0.7 0.5 1.4 1.7 1.2C42.8 45.8 49.6 36.3 49.6 25.2 49.6 11.3 38.4 0.8 24.5 0.8zM9.7 35.3c-0.1 0.1 -0.1 0.3 0.1 0.5 0.2 0.2 0.4 0.2 0.5 0.1 0.1 -0.1 0.1 -0.3 -0.1 -0.5 -0.2 -0.2 -0.4 -0.2 -0.5 -0.1zm-1.1 -0.8c-0.1 0.1 0 0.3 0.2 0.4 0.2 0.1 0.4 0.1 0.4 -0.1 0.1 -0.1 0 -0.3 -0.2 -0.4 -0.2 -0.1 -0.4 0 -0.4 0.1zm3.2 3.6c-0.2 0.1 -0.1 0.4 0.1 0.6 0.2 0.2 0.5 0.3 0.7 0.1 0.1 -0.1 0.1 -0.4 -0.1 -0.6 -0.2 -0.2 -0.5 -0.3 -0.7 -0.1zm-1.1 -1.5c-0.2 0.1 -0.2 0.4 0 0.6 0.2 0.2 0.4 0.3 0.6 0.2 0.2 -0.1 0.2 -0.4 0 -0.6 -0.1 -0.2 -0.4 -0.3 -0.6 -0.2z"/>
</symbol>

    <use xlink:href="#rough_github"></use>

  </svg>
  
