<?xml version="1.0" encoding="iso-8859-1"?>
<!-- Generator: Adobe Illustrator 19.0.0, SVG Export Plug-In . SVG Version: 6.00 Build 0)  -->
<svg version="1.1" id="Capa_1" xmlns="http://www.w3.org/2000/svg" xmlns:xlink="http://www.w3.org/1999/xlink" x="0px" y="0px"
	 viewBox="0 0 490.031 490.031" style="enable-background:new 0 0 490.031 490.031;" xml:space="preserve">
<g>
	<g>
		<path d="M471.725,428.483l2.6-2.7c1.8-1.7,3.3-3.9,4.9-5.9c3.1-4.3,5.8-9,7.8-14.4c1.9-5.4,3-11.3,3-17.3c0.1-6-1.2-11.9-3.2-17.3
			c-1-2.7-2.2-5.2-3.5-7.7c-1.5-2.4-2.6-4.6-4.5-7l-2.7-3.5l-1.9-2.1l-0.5-0.5l-1-1.1l-1-1l-2-2.1c-10.7-11-21.3-21.9-32-32.9
			l-16.1-16.4l-8.1-8.2c-3.8-3.7-7.8-7.2-12.7-10.1c-4.9-2.9-10.3-5.4-16.3-6.8s-12.3-1.7-18.5-0.9c-6.2,0.7-12,2.8-17.2,5.3
			c-2.7,1.3-5,2.8-7.4,4.3c-1.2,0.8-2.5,1.8-3.7,2.8l-1.8,1.5l-1.1,1l-2.9,2.6l-2,2l-4.1,4.1l-8.2,8.1l-16.3,16.3l-1.2,1.2
			c-5.3-2.6-10-4.8-13.7-7.1c-1.2-0.7-2.8-1.7-4.3-2.7l-4.5-2.9c-3-2-6-4-8.9-6.2c-5.9-4.2-11.6-8.6-17.2-13.3
			c-22.4-18.4-42.7-40.1-60.9-63.2c-8.8-11.4-16.5-23.1-22.4-35.4c-0.1-0.2-0.2-0.4-0.2-0.5l13.6-13.5l16.4-16.2
			c1.2-1.1,3.2-3.2,4.9-5.1c1.8-1.9,3.4-4.1,5-6.2c3.2-4.5,5.9-9.6,7.9-15.2c4.1-11.4,3.7-25.5-1-36.3c-1-2.8-2.4-5.3-3.8-7.8
			c-1.5-2.4-2.8-4.6-4.8-7c-0.9-1.1-1.9-2.5-2.7-3.4l-1.9-2.1l-1.6-1.7l-1-1l-2-2.1c-7.6-7.8-22.2-17.4-27.8-19.5
			c-11-4.1-4.1,8.6,8.3,25.5c4.9,7,11.2,13.8,14.8,21.9c3.6,8,4.1,17,0.8,24.5c-1.6,3.8-3.9,7.2-6.8,10.3c-1.4,1.6-3,3-4.6,4.4
			l-5.4,4.6c-7.4,6.3-14.9,12.7-22.4,19.3c-3.7,3.3-7.5,6.6-11.3,10l-1.5,1.4c-1,1-1.7,1.8-2.5,3c-1.6,2.1-3,5.9-3,9.2
			s0.7,5.8,1.3,7.6l1.5,4c4,10.3,8.9,20,14.6,29.4c5.7,9.4,12,18.3,18.7,26.9c3.2,4.1,6.7,8.4,10.2,12.6c3.5,4.1,7.1,8.2,10.7,12.3
			c17.7,19.4,37.2,37.4,58.7,53.1c5.4,3.9,10.8,7.6,16.6,11.3c6.6,4,12.5,6.8,17.9,9.6l3.9,2.1l2.3,1.3c0.4,0.2,1.9,0.9,2.8,1.2
			c0.9,0.4,2,0.7,3.1,0.9c2.3,0.5,5.3,0.8,8.2,0.3c2.9-0.4,5.6-1.5,7.6-2.6c2.1-1.1,3.5-2.3,4.7-3.4c0.6-0.5,1.1-1,1.6-1.5l0.8-0.8
			l13.7-13.3l13.7-13.3l6.8-6.7l1.7-1.7l0.7-0.7l0.4-0.4l1.8-1.6l0.9-0.8l0.5-0.3c1-0.8,3-2,4.6-2.7s3.2-1.2,4.7-1.4
			c3-0.5,5.8,0,8.9,1.4c1.5,0.7,3.1,1.7,4.7,2.9c0.8,0.6,1.6,1.2,2.3,2l1.1,1.1l1.7,1.7l13.4,13.7l26.7,27.3l13.4,13.7l3.4,3.4
			l0.4,0.4l0,0l0.6,0.7l1.6,1.8c0.7,0.7,0.6,0.8,0.9,1.2c0.2,0.3,0.4,0.6,0.6,0.8c0.4,0.8,1,1.6,1.4,2.3c1.6,3.1,2.2,5.7,2,8.3
			c-0.1,2.6-1.2,5.4-3.3,8.5c-1,1.5-2.4,3.1-3.8,4.7l-6.5,6.4l-13.8,13.6c-4.7,4.6-9.4,9.4-14,14.5l-3,3.1c-1,1.1-1.5,1.4-2.3,2.1
			c-1.7,1.4-3.5,2.9-5.4,4c-7.4,4.8-16.2,7.1-26.5,7.4c-2.6,0-5.2,0-7.8-0.2l-4.7-0.3l-4-0.4c-5.6-0.7-11.4-1.6-17-2.8
			c-22.8-4.9-45-14-67.5-25.2c-21.3-11.4-42.1-24.6-61.6-39.1c-31.1-22.9-59.2-49.8-84.2-79.3c-25-29.6-47-61.5-64.1-95.7
			c-4.2-8.6-8.2-17.2-11.8-26l-2.6-6.6l-1.3-3.2l-1.3-3.5c-1.6-4.4-3.1-8.7-4.5-13.2c-5.5-17.6-8.3-35-7-51.8
			c0.6-7.1,2.7-13.8,6.3-19.5c0.9-1.4,1.9-2.8,3-4.2c0.5-0.7,1.2-1.3,1.7-2l2.2-2.2l10.5-10.8l20.9-21.6l4.8-5l2.7-2.6
			c0.5-0.3,0.9-0.7,1.3-1.1c2.4-1.8,4.9-3.1,7.2-3.8c5.2-1.4,10.7-0.4,16.6,3.4c0.7,0.4,1.4,1,2.1,1.5l1.1,0.8l1.4,1.1
			c1.8,1.5,3.6,2.9,5.3,4.3c3.4,2.7,6.7,5.2,9.7,7.4c12.1,8.7,20.6,12.3,22.6,7.9c1.8-4-1.9-12.8-10.1-24.8c-2.1-3-4.4-6.2-7-9.6
			c-1.3-1.7-2.6-3.3-4.2-5.3c-1.8-2-3.8-4.1-6.1-6c-4.6-3.9-10.5-7.4-17.6-9.4c-7.1-2.1-15.4-2.1-23.2,0c-3.5,0.9-6.8,2.3-9.9,3.9
			s-5.9,3.5-8.9,5.8l-1.1,0.8l-0.7,0.6l-1.5,1.3l-0.7,0.6l-1,1l-1.4,1.4l-5.7,5.4l-23,22l-5.7,5.5l-2.9,2.8
			c-1.2,1.1-2.3,2.2-3.4,3.4c-4.4,4.7-8.3,10.1-11.4,16s-5.4,12.1-6.8,18.5c-0.4,1.6-0.6,3.2-1,4.8c-0.2,1.6-0.6,3.7-0.7,4.8
			c-0.4,3.1-0.5,5.9-0.7,8.9c-1,23.8,4.1,46.7,11.3,67.7c7.1,20.8,15.9,41,26.4,60.1c16.7,30.9,37.3,59.6,59.6,85.9
			c22.7,26.7,47.8,50.9,75.3,72.5c27.5,21.5,57,40.1,88.3,55.6c30.8,15.3,64.8,28.6,101.3,31.1c15.9,2.2,35.2,1.4,52.2-7.2
			c4.3-2.1,8.3-4.6,12-7.5c1.8-1.4,3.7-2.9,5.6-4.7l1.4-1.3l1-1l2-2l4.1-4.2l3.9-3.8l8-7.6l16.9-15.6L471.725,428.483z"/>
	</g>
</g>
<g>
</g>
<g>
</g>
<g>
</g>
<g>
</g>
<g>
</g>
<g>
</g>
<g>
</g>
<g>
</g>
<g>
</g>
<g>
</g>
<g>
</g>
<g>
</g>
<g>
</g>
<g>
</g>
<g>
</g>
</svg>
