<?xml version="1.0" encoding="iso-8859-1"?>
<svg version="1.1" id="Capa_1" xmlns="http://www.w3.org/2000/svg" xmlns:xlink="http://www.w3.org/1999/xlink" x="0px" y="0px"
	 viewBox="0 0 150 150" style="enable-background:new 0 0 150 150;" xml:space="preserve">
    <style> path { stroke: blue; fill: blue; fill-opacity: 0.4; } </style>

    <symbol xmlns="http://www.w3.org/2000/svg" id="rough_sort-down" viewBox="0 0 32 52">
      <title>sort-down</title>
      <g transform="translate(0 -30) scale(1.3 1.3)">
  <path class="rough-outline" fill="none" d="M3.6 28.1M5 27.4C9.7 30.2 18.1 27.7 27.1 30.1M4 29.5C13.7 28.2 21.5 28.2 27.6 28.6M27.9 28.8C28.6 30.3 31.2 32.8 28.1 31.9M27 29.8C28.3 28.6 32.7 31.6 28 34.6M29.5 34C24.2 38.5 20.3 41.6 17.6 44.6M29 32.3C26.6 34.8 24.4 38.3 17.9 44.2M17.7 44.8C18.1 45 15.5 45 13.6 45.1M19 44.6C15.8 44.8 16.9 45.1 13.4 44.3M14 45.9C9.2 39.8 6.3 35.8 2.9 32.8M14 44.5C12.3 41.9 9.7 40 1.8 32.4M2.4 32.9C0.7 32.4 2.5 28 2.8 28.6M3 34C0.5 32.1 1.1 29.6 5.6 27.4M4.1 28.8C4.1 28.8 4.1 28.8 4.1 28.8M4.1 28.8C4.1 28.8 4.1 28.8 4.1 28.8"/>
  <path class="rough-mask" stroke="none" d="M4.1 28.8h23.8c2.1 0 3.2 2.6 1.7 4.1L17.7 44.8c-0.9 0.9 -2.5 0.9 -3.4 0L2.4 32.9c-1.5 -1.5 -0.4 -4.1 1.7 -4.1z"/>
      </g>
</symbol>

    <use xlink:href="#rough_sort-down"></use>

  </svg>
