<?xml version="1.0" encoding="iso-8859-1"?>
<svg version="1.1" id="Capa_1" xmlns="http://www.w3.org/2000/svg" xmlns:xlink="http://www.w3.org/1999/xlink" x="0px" y="0px"
	 viewBox="0 0 150 150" style="enable-background:new 0 0 150 150;" xml:space="preserve">
    <style> path { stroke: blue; fill: none; } </style>

    

    <symbol xmlns="http://www.w3.org/2000/svg" id="rough_square" viewBox="0 0 45 52">
  <title>square</title>
  <path class="rough-outline" fill="none" d="M40.4 2.3M40.3 3.4C28.8 3.1 16.2 1.7 4.7 3.2M39.3 3.8C33.1 2.9 26.1 4.1 4.8 3.4M4.8 3.2C3 3 -1.5 4.8 0 7.9M6.1 2.9C1.9 4.8 1.6 6.9 0.7 9.7M-0.6 8.5C0 18.1 -0.5 28.7 0.6 44.1M0.4 7.6C0.5 21.8 0.3 33.7 -0.7 43.2M0 43.2C-1.1 45.3 1.5 47.3 3.6 48.4M1.5 44.1C-0.8 47.1 1.4 48.8 4.4 46.9M5.1 49.3C16 46.9 24 47 40.8 47.3M5.3 48.5C16.8 48.6 27.9 48.6 40.6 47.9M40 48C41.4 47.2 46.1 46.5 43.9 43.8M40 48.6C42.8 48.3 43.8 47.4 43.5 45M43.3 42.1C43.9 34.5 45.2 23.7 44.3 7.8M44 43.9C43.9 33 45.2 23.8 45.5 7.2M44.8 8C46 3.8 42.8 3.5 40.8 2.3M44.3 6.4C46.4 5.9 44.2 1.5 38.9 2.1M40 3.2C40 3.2 40 3.2 40 3.2M40 3.2C40 3.2 40 3.2 40 3.2M40.6 44M40.2 43.7C26.2 42.1 14.5 42 4.6 44.7M39 43.2C29.7 43.4 20.4 43.8 5.6 43.4M5.4 43.2C6.4 44.5 3.2 42.7 3.4 41.6M4.2 43.8C6.5 41.7 5.3 44 3.8 41.3M3.8 42.7C6.2 30.6 4.1 17.8 4.9 8.7M4.8 43.4C4.7 31.5 4.4 19.9 4.5 8.8M4.8 8.6C4.5 8.7 3.9 7.7 5.4 8M5.7 7.3C5.1 8.5 5.1 9.6 6.1 8.3M6 9C19.5 7.9 29.4 8.6 40.2 8M4.7 8.1C17.1 8.3 28.6 7.9 40.1 7.3M39.4 8C40.8 7.8 40.3 8.4 40.2 10.2M38.2 6.7C40.9 9.8 38.5 9 38.9 7.7M41.3 9.2C41.1 17.5 40.4 29.5 40.5 43.3M40.4 8.8C40.1 17.1 39.7 26.4 40.5 42.2M40 42.6C39.1 44.3 40.1 41.6 39.7 43.3M41 43.3C40.6 41.2 38 42 39.3 42.1M39.4 43.2C39.4 43.2 39.4 43.2 39.4 43.2M39.4 43.2C39.4 43.2 39.4 43.2 39.4 43.2"/>
  <path class="rough-mask" stroke="none" d="M40 3.2H4.8C2.1 3.2 0 5.4 0 8v35.2c0 2.7 2.1 4.8 4.8 4.8h35.2c2.7 0 4.8 -2.1 4.8 -4.8V8c0 -2.7 -2.1 -4.8 -4.8 -4.8zm-0.6 40H5.4c-0.3 0 -0.6 -0.3 -0.6 -0.6V8.6c0 -0.3 0.3 -0.6 0.6 -0.6h34c0.3 0 0.6 0.3 0.6 0.6v34c0 0.3 -0.3 0.6 -0.6 0.6z"/>
</symbol>

    <use xlink:href="#rough_square"></use>

  </svg>
