<?xml version="1.0" encoding="iso-8859-1"?>
<svg version="1.1" id="Capa_1" xmlns="http://www.w3.org/2000/svg" xmlns:xlink="http://www.w3.org/1999/xlink" x="0px" y="0px"
	 viewBox="0 0 150 150" style="enable-background:new 0 0 150 150;" xml:space="preserve">
   <style> path { stroke: red; fill: red; fill-opacity: 0.4; } </style>

    

    <symbol xmlns="http://www.w3.org/2000/svg" id="rough_text-height" viewBox="0 0 58 52">
      <title>text-height</title>
      <g transform="translate(12 0) scale(1.3 1)">
  <path class="rough-outline" fill="none" d="M 30.3 4.4 M 29.8 4.6 C 23.5 3 15.3 4.1 1 3.8 M 30.2 2.6 C 22.8 3 15.1 3.2 1.2 2.5 M 1.6 3.2 C -0.9 4.4 -0.6 4.6 0.5 6.2 M 0.6 3.3 C -0.1 3 -0.1 2.7 -0.5 3.1 M -0.8 4.1 C 0.1 7.8 -0.8 10.8 -0.2 14.9 M -0.4 4.8 C 0 7.5 0 10.5 0 14.2 M 0 14.4 C -1.4 16.8 1.5 17.4 1.7 16.9 M 1.2 15.2 C 1 16.9 -0.8 16.3 1.2 16.7 M 1.6 15.9 C 2.4 16 3.1 16.2 4.6 15.9 M 1.6 16 C 2.4 16 3.3 15.9 4.8 15.9 M 4.8 16 C 6.2 16 5.5 16.1 5.6 15.1 M 4.2 15.1 C 7.1 17 8 14.6 5.2 13.7 M 6.4 14.6 C 6.2 13.1 6.2 11.8 6.6 11.4 M 6.3 14.4 C 6.3 13.4 6.3 12.5 6.4 11.3 M 6.3 11.1 C 8.4 11.2 10 11.1 11.7 11.5 M 6.4 11.2 C 8.4 11 10.6 11.1 12.1 11.2 M 11.3 10.5 C 13.4 18.7 11.6 28.9 10.7 42.7 M 11.3 11.3 C 12.9 22.5 12.4 33.4 11.3 40.9 M 11.8 41.9 C 10.9 41.6 9 41.6 8.1 41.7 M 12 41.7 C 10.7 41.7 9.3 41.6 7.9 41.6 M 8 41.6 C 5.8 42.1 7.5 41.5 6.4 44 M 7.5 41.4 C 8.3 41.4 7.8 42.4 7.8 41.9 M 6.3 43.4 C 6.3 43.9 6.3 44.7 6.6 46.2 M 6.5 43.1 C 6.4 44.3 6.3 45.4 6.4 46.5 M 6.4 46.4 C 5.2 47.2 7.7 48.2 7.1 46.8 M 6.4 47.4 C 8.1 45.6 7.3 47.5 6.7 49.7 M 8.1 48 C 13.8 48.8 18.7 47.8 24 47.5 M 7.4 47.5 C 12.5 48.4 18.2 48.1 24 47.9 M 24 48 C 26.3 49.2 24.8 46.1 24.4 44.9 M 22.5 48.4 C 24.4 46.9 26.9 45.7 24.1 46.1 M 25.8 46.4 C 25.5 45.1 25.5 43.8 25.8 43.3 M 25.6 46.4 C 25.5 45.6 25.5 44.9 25.6 43.1 M 25.6 43.2 C 26.3 43.1 26 41.3 22.4 40.5 M 24.4 43.7 C 25.9 42.8 25.9 42.9 23.3 40.7 M 24.3 41.4 C 22.5 41.5 21.1 41.4 20.2 41.8 M 24 41.6 C 23.1 41.6 22.2 41.7 20 41.6 M 21.2 40.9 C 19.3 35.1 20 28.3 21.2 10.8 M 20.5 41.5 C 20 30.7 20.7 21 19.3 10.8 M 19.8 11.2 C 21.8 11.3 23.2 11 25.6 10.9 M 20.1 11.3 C 22.3 11.3 24.4 11.1 25.6 11.4 M 25.5 11 C 25.5 12.3 25.8 13.4 25.5 14.4 M 25.7 11.2 C 25.6 12.1 25.7 13 25.5 14.5 M 25.6 14.4 C 24.4 16.6 26.3 17.6 26.9 16 M 26.5 15.2 C 26 16.2 24.8 16.4 28.8 14.4 M 27.3 15.8 C 28.3 16.2 29.2 16.2 30.5 16.2 M 27.1 16.1 C 28.1 16.1 28.8 16.1 30.3 16 M 30.4 16 C 30.4 17.5 31.6 16.8 31.8 15.3 M 29.1 16.3 C 32 17.5 33.4 15 33.6 13.4 M 32.2 15 C 31.4 11.3 32.8 7.7 31.4 5.3 M 31.7 14.6 C 31.9 11.7 31.8 8.2 31.9 5 M 32 4.8 C 32.8 4.5 30 2.6 31.2 3.8 M 30.9 5 C 31.8 2.9 29.8 2.5 31 2.1 M 30.4 3.2 C 30.4 3.2 30.4 3.2 30.4 3.2 M 30.4 3.2 C 30.4 3.2 30.4 3.2 30.4 3.2" />
  <path class="rough-mask" stroke="none" d="M 30.4 3.2 H 1.6 A 1.6 1.6 0 0 0 0 4.8 v 9.6 a 1.6 1.6 0 0 0 1.6 1.6 h 3.2 a 1.6 1.6 0 0 0 1.6 -1.6 v -3.2 h 5.6 v 30.4 H 8 a 1.6 1.6 0 0 0 -1.6 1.6 v 3.2 a 1.6 1.6 0 0 0 1.6 1.6 h 16 a 1.6 1.6 0 0 0 1.6 -1.6 v -3.2 a 1.6 1.6 0 0 0 -1.6 -1.6 h -4 V 11.2 h 5.6 v 3.2 a 1.6 1.6 0 0 0 1.6 1.6 h 3.2 a 1.6 1.6 0 0 0 1.6 -1.6 V 4.8 a 1.6 1.6 0 0 0 -1.6 -1.6 z"/>
      </g>
    </symbol>

    <use xlink:href="#rough_text-height"></use>

  </svg>
