<svg width="150" height="150">
    <style> path { stroke: #000000; fill: none; } </style>

    

    <symbol xmlns="http://www.w3.org/2000/svg" id="rough_arrow-left" viewBox="0 0 45 52">
  <title>arrow-left</title>
  <path class="rough-outline" fill="none" d="M27.1 45.5M25.6 44.6C25 45.2 24.3 45.6 23.6 46.9M25.7 44.6C25.1 45.4 24.1 46.2 23.6 46.8M23.6 46.7C23.6 48.2 19.5 49 21.4 47.1M23.6 47.9C23.8 47.2 22.4 49.4 19.7 47.3M20.7 47.1C12.6 40.8 6 31.7 2 28.7M20 46.2C15.6 42.7 11.6 38 1.1 26.6M0.7 27.3C1.2 27.7 0.5 24.1 2.1 24M-0.6 27.7C-0.5 26.7 -1.8 23.9 0.1 24.5M0.7 23.5C4.8 17.5 12.7 14.7 21.5 5.8M1.2 24C7.3 17.1 14.4 10.2 20.6 4.6M20.1 4.5C19.6 2.9 23.7 2.1 22.7 2.9M20.5 5.2C22.5 2 23.7 3.2 22.6 3.5M23.5 4.4C24 5.4 24.7 6 25.6 6.6M23.5 4.5C24 5.1 24.4 5.5 25.8 6.8M25.7 6.7C25.3 8.8 26.9 9.6 27.1 9.8M25.1 7.8C25.1 8.6 25.5 8.7 24.7 11M25.1 9.7C22.5 13.9 18.4 17.4 12.9 22.7M25.6 10C22.8 13 18.9 15.9 13.4 21.1M14.6 21.9C21 21.1 26.7 21.2 43.1 20.2M14 21.8C24.1 21.9 36.2 21.2 43.1 21.1M42.4 21.6C44.5 22.6 44.8 24.2 45.3 24.4M41.8 20.7C45.3 21.1 46 22 46.3 23.1M44.9 23.9C44.9 25 44.7 25.9 44.9 27.4M44.7 24C44.7 24.9 44.9 25.9 44.8 27.2M44.8 27.2C44 28.5 42.8 31.1 42 29.5M43.7 28.2C44.7 28.3 42.3 29.6 42.8 29.1M42.9 30.5C34.9 29.4 25.5 30 14.3 30.7M42.1 29.7C32.9 30 23.4 29.5 14 29M12.9 28.4C17.8 33.4 20.6 37.4 24.7 41.5M13.1 30.2C17.6 34.4 22.3 38.4 25.7 40.7M25.8 41.1C26 40.9 26 43.1 25.9 43.7M25 41.4C28.3 41.9 28.6 45.2 25.5 42.8M25.8 44.5C25.8 44.5 25.8 44.5 25.8 44.5M25.8 44.5C25.8 44.5 25.8 44.5 25.8 44.5"/>
  <path class="rough-mask" stroke="none" d="M25.8 44.5l-2.2 2.2c-0.9 0.9 -2.5 0.9 -3.4 0L0.7 27.3c-0.9 -0.9 -0.9 -2.5 0 -3.4L20.1 4.5c0.9 -0.9 2.5 -0.9 3.4 0l2.2 2.2c1 1 0.9 2.5 0 3.4L13.7 21.6H42.4c1.3 0 2.4 1.1 2.4 2.4v3.2c0 1.3 -1.1 2.4 -2.4 2.4H13.7l12.1 11.5c1 0.9 1 2.5 0 3.4z"/>
</symbol>

    <use xlink:href="#rough_arrow-left"></use>

</svg>
