<svg width="150" height="150">
    <style> path { stroke: #000000; fill: none; } </style>

    

    <symbol xmlns="http://www.w3.org/2000/svg" id="rough_text-height" viewBox="0 0 58 52">
  <title>text-height</title>
  <path class="rough-outline" fill="none" d="M29.2 2.4M31.8 3.1C21.6 2.4 12.9 2.9 1 1.9M31.1 2.7C22 3.9 12.2 3.5 1.3 3.4M1.6 3.2C0.2 2.8 -0.9 5.4 -1.5 4.3M0.2 2.1C2.1 2.9 0.6 3.4 1.3 3.1M-0.1 4.8C0.7 7.7 0 10.2 0.4 14.4M-0.1 5C0 7 -0.3 9 -0.3 14.1M0 14.4C-0.5 15.5 -0.2 16.9 2.1 16.6M-0.5 14.6C-0.2 13.7 1.2 14.7 2.8 16.3M1.6 16.2C2.4 16.2 3.8 16.1 4.6 16M1.6 16C2.7 15.9 4 16.1 4.8 16.1M4.8 16C6 15.3 5.7 14.4 5.2 13.1M4.1 15.6C4.9 16.6 7.8 14.2 6.5 14.6M6.2 14.6C6.3 13.7 6.6 13.3 6.6 11.2M6.4 14.5C6.3 13.3 6.3 12.3 6.4 11.1M6.1 11.6C7.3 11.4 8.8 11.5 11.8 11.1M6.3 11.1C8.1 11.3 9.7 11.4 12 11.3M11.7 11.9C13.5 21.6 12.9 30.7 12.5 41.9M11.3 10.5C12.4 19.8 11.4 29.3 12.4 41.5M12 41.5C10.7 41.8 9.6 41.9 8.3 41.6M12 41.5C10.8 41.6 9.7 41.5 8.1 41.6M8 41.6C8.6 41.5 6.6 42 7.7 43.1M9.3 40.9C8.2 42.4 5.2 42.8 6.1 43.5M6.2 43.1C6.3 44.3 6.5 44.9 6.2 46.6M6.3 43.2C6.4 44.3 6.3 45.4 6.3 46.3M6.4 46.4C5.9 46.2 7.8 48.9 7.6 48.3M6.4 46.9C6.9 48 6.3 46.6 8.7 46.6M8.6 46.9C11.4 47.3 15.7 48.2 23.5 47.4M7.7 48C11.8 47.6 15.9 47.9 24.1 48.3M24 48C25.8 47.6 24 47.9 26.7 46.9M24.7 46.5C24.1 47.9 24.3 47.9 27.2 45M25.4 46.5C25.7 45.5 25.5 44.4 25.4 43.4M25.6 46.4C25.5 45.6 25.6 44.8 25.7 43.1M25.6 43.2C24.2 41.7 26.1 41.3 22.6 42.9M25.7 44.2C26.5 40.6 23.1 42.5 23.8 42.8M24.2 41.7C22.6 41.9 21.7 41.7 20.2 41.4M23.9 41.7C22.4 41.7 21.2 41.7 19.9 41.6M20.1 40.6C20.7 33 20 21.6 20.4 11.7M20.1 41.3C19.7 29.4 20.4 18.7 20.1 11.1M20.4 11.2C21.5 11 22.8 11.2 25.7 10.8M20.1 11.2C21 11.2 22.2 11.1 25.5 11.3M25.6 11C25.8 12.1 25.8 12.8 25.5 14.2M25.7 11.1C25.5 12.2 25.6 13.2 25.6 14.5M25.6 14.4C25.7 14.8 26.3 17.2 27.7 14.4M26 14.4C25.2 17 25.3 14.9 25.8 14.6M27.2 15.9C28 16.2 29.4 16 30.5 16.1M27.1 16.1C28.1 16 29.3 16.1 30.4 16M30.4 16C32.1 16.7 30.7 16.3 31.5 13.8M31.1 17.1C31.7 16.2 31.8 15.6 30.6 14M31.4 14.9C32.2 11.4 32.7 7.8 32.1 5.4M32.2 14.8C31.8 11.2 32.1 7 32.1 4.6M32 4.8C30.6 2.5 29.8 2 29.3 2.1M31.2 6.2C32.9 3.8 30 4.5 29.5 1.4M30.4 3.2C30.4 3.2 30.4 3.2 30.4 3.2M30.4 3.2C30.4 3.2 30.4 3.2 30.4 3.2M55.5 35.5M55.9 36.9C54.4 36.6 53.5 36.7 51.5 37M55.9 36.8C55 36.8 54 36.8 51.2 36.6M49.7 35.8C50.1 28.9 52.5 24.7 52.3 15.7M51.8 36.5C50.5 29.2 51.2 22.1 51 14.8M51.4 14.2C52.7 14.7 54.8 14.5 55.8 14.4M51.3 14.6C52.9 14.2 54.3 14.4 55.9 14.4M56 14.4C56.2 13.4 59 11.7 56.4 11.4M54.8 12.9C56.9 14.1 58.8 11.5 58.6 11.5M57.5 11.2C54.7 9.9 52.4 8 48.3 3.8M57.5 12.1C54.9 9.7 53 8 49.4 3.5M49.1 3.7C49.3 4.2 46.2 4 47.9 4.6M48.3 2.6C50 4.6 48.4 2.2 45.1 4.7M47.5 3.4C44.7 6.2 43.3 7.7 39.4 11.7M47.1 3.5C43.3 6.4 40.9 9.6 39.2 11.5M38.8 11.7C37.2 13.9 37.5 13.4 41.4 13.7M38 10.2C37.6 12.1 36.7 12.9 39.2 14.6M40 14.5C41.5 14.1 43 14.2 44.6 14.4M39.9 14.6C40.9 14.2 42.1 14.2 44.9 14.5M45.4 14.1C45.3 19.1 46 27 45.7 37.1M44.2 14.6C45.4 23.2 44.6 31.4 45.1 37.4M44.9 36.5C43.1 36.4 41.9 36.5 39.7 36.7M44.9 36.9C43 36.8 41 36.9 40.2 36.8M40 36.8C37.4 35.4 36.9 39.3 38.2 38.2M40.5 37.6C39 38.3 38.9 39.8 40.3 40.7M38 38.9C40.8 41.8 42.7 44.1 47.6 46.7M38.8 39.6C41.4 42.6 44.5 45.2 46.6 47.8M46.9 47.5C47.8 49.4 49.2 47.6 48.6 47.8M47.4 48.3C49.2 49.7 46.8 48.6 50.9 48.1M49.8 47.7C52.1 44.1 56.1 41.1 58.1 40.3M48.9 47.2C51.8 44.9 53.3 42.5 57.4 39.6M57.2 39.5C56.8 40.1 58.2 37.8 54.7 37.5M55.9 38.3C57.3 38.3 59.4 37.4 55.1 37.3M56 36.8C56 36.8 56 36.8 56 36.8M56 36.8C56 36.8 56 36.8 56 36.8"/>
  <path class="rough-mask" stroke="none" d="M30.4 3.2H1.6A1.6 1.6 0 0 0 0 4.8v9.6a1.6 1.6 0 0 0 1.6 1.6h3.2a1.6 1.6 0 0 0 1.6 -1.6v-3.2h5.6v30.4H8a1.6 1.6 0 0 0 -1.6 1.6v3.2a1.6 1.6 0 0 0 1.6 1.6h16a1.6 1.6 0 0 0 1.6 -1.6v-3.2a1.6 1.6 0 0 0 -1.6 -1.6h-4V11.2h5.6v3.2a1.6 1.6 0 0 0 1.6 1.6h3.2a1.6 1.6 0 0 0 1.6 -1.6V4.8a1.6 1.6 0 0 0 -1.6 -1.6zm25.6 33.6h-4.8V14.4h4.8c1.4 0 2.1 -1.7 1.1 -2.7l-8 -8a1.6 1.6 0 0 0 -2.3 0l-8 8C37.9 12.6 38.4 14.4 40 14.4h4.8v22.4h-4.8c-1.4 0 -2.1 1.7 -1.1 2.7l8 8a1.6 1.6 0 0 0 2.3 0l8 -8C58.1 38.6 57.6 36.8 56 36.8z"/>
</symbol>

    <use xlink:href="#rough_text-height"></use>

  </svg>
