<svg width="150" height="150">
    <style> path { stroke: #000000; fill: none; } </style>

    

    <symbol xmlns="http://www.w3.org/2000/svg" id="rough_arrow-right" viewBox="0 0 45 52">
  <title>arrow-right</title>
  <path class="rough-outline" fill="none" d="M19.2 7.7M19 6.8C19.9 6.2 20.8 5.1 21.1 4.3M19.1 6.8C19.5 6.3 19.9 5.9 21.4 4.4M21.3 4.5C21.5 4.7 23.2 5.1 23.3 4.6M20.1 3.2C22.3 3.8 23.9 4.9 26.1 3.6M24.3 4.5C33.4 11.2 39.6 19.9 43.2 25.4M24.4 4C30.4 9.8 35.6 16.7 44.6 23.3M44.1 23.9C44.9 23.7 44.5 27 45.3 27.8M43.3 25.1C46.8 24.1 45.2 24.8 44.7 26.6M44.5 25.8C40.3 33.7 32.9 37.1 23.5 46.2M44.6 27.8C39.3 31.9 36.3 35.6 24.8 47.3M24.7 46.7C24.5 48.8 22.8 47.8 20.2 45.4M24.1 46.2C22.1 46.9 21.1 46.3 21.7 47.9M21.2 46.8C20.8 46 19.9 45.3 19.1 44.6M21.3 46.7C20.6 45.9 19.7 45.2 19 44.4M19.1 44.5C17.2 41.9 19.5 41.1 18.7 41M18.8 44.4C18.8 41.8 19.3 42 20.2 40.9M19.9 40.1C20.9 38.6 23.9 34.4 31.7 30.4M19.6 40.7C22.7 37.6 26.7 33.5 31.6 30.1M32.1 29.3C21.8 30.8 15.2 30.2 3.3 28.8M30.8 29.7C21.1 30.2 10.9 28.9 2.9 30M2.4 29.6C2 29.1 -1.1 29.2 1.4 28.7M1.7 29.5C0.8 28.2 -1.3 29.9 0 28.9M-0.2 27.3C-0.1 26.2 0.3 25.3 -0.2 24.2M0.1 27.1C0 26.1 0 25.2 0 24.1M0 24C0.3 21.2 1.3 22.9 3 21.4M-0.5 23.1C0 22.5 2.5 20.9 1 20.3M2.6 20.8C10.6 20.3 18.9 20.3 30.4 21.2M3 21.4C8.2 21.3 14.5 21.9 31.4 22.2M30.3 20.3C29.3 19.8 26 16 19.9 8.8M31.7 21.4C26.4 16.8 21.7 13.1 18.9 10.6M19.1 10.1C18.6 10.2 18.8 8.4 19.5 6.4M18.5 9.2C16.6 10.6 17.8 8.6 19.7 6.6M19.1 6.7C19.1 6.7 19.1 6.7 19.1 6.7M19.1 6.7C19.1 6.7 19.1 6.7 19.1 6.7"/>
  <path class="rough-mask" stroke="none" d="M19.1 6.7l2.2 -2.2c0.9 -0.9 2.5 -0.9 3.4 0L44.1 23.9c0.9 0.9 0.9 2.5 0 3.4L24.7 46.7c-0.9 0.9 -2.5 0.9 -3.4 0l-2.2 -2.2c-1 -1 -0.9 -2.5 0 -3.4L31.1 29.6H2.4c-1.3 0 -2.4 -1.1 -2.4 -2.4v-3.2c0 -1.3 1.1 -2.4 2.4 -2.4h28.7L19.1 10.1c-1 -0.9 -1 -2.5 0 -3.4z"/>
</symbol>

    <use xlink:href="#rough_arrow-right"></use>

</svg>
