<?xml version="1.0" encoding="iso-8859-1"?>
<svg version="1.1" id="Capa_1" xmlns="http://www.w3.org/2000/svg" xmlns:xlink="http://www.w3.org/1999/xlink" x="0px" y="0px"
	 viewBox="0 0 150 150" style="enable-background:new 0 0 150 150;" xml:space="preserve">
    <style> path { stroke: red; fill: none; } </style>

    

    <symbol xmlns="http://www.w3.org/2000/svg" id="rough_long-arrow-alt-right" viewBox="0 0 45 52">
  <title>long-arrow-alt-right</title>
  <path class="rough-outline" fill="none" d="M31 20.9M30.9 20.8C20.7 22.9 11.9 19.9 1.8 20.1M31.8 21.3C22.2 20.7 13.6 21.3 1.5 21M1.2 21.6C1.4 21.9 1.5 23 -1.1 22.1M1 21.6C1.1 22.4 1.4 23.9 0.6 23.1M0.3 23C0.3 25.2 0.1 27.2 -0.3 28.1M0.1 22.8C0.1 24.1 0 25.5 0 28.6M0 28.4C1.4 28.8 1 28.5 2.7 29.5M1.3 29.9C0 29.2 0.1 29.3 -0.5 29.2M0.8 30.4C9.1 28.1 13 29.1 30.8 28.3M1.5 29.3C7.8 29.2 14.7 30.2 32.1 28.8M31.6 29.4C31.3 31.1 31.3 32.3 31.4 34.3M31.6 29.8C31.6 31.1 31.4 32.1 31.5 34.1M31.4 34.2C32.7 35.6 33.6 36 36.2 34.9M30.2 33C32.6 35.8 35.8 35.9 35.7 37.5M35.6 36.7C38.7 33 42.4 29.1 43.9 27.1M35.6 35.7C38.5 32.8 41.6 30.1 44.4 27.3M44.1 27.3C44.6 25.9 46.3 26.3 44.8 23.2M45.2 28.2C46.4 25 45.7 26.2 43 22.2M44.7 24.5C40.3 20.6 37.4 18.1 34.6 16.3M44.2 23.9C41.2 20.5 37.2 17.8 36 15.1M35.5 15.3C34.8 14.8 32.1 16.4 30.4 18.2M34.3 14.9C33.8 14.3 31.4 16.1 30 16.8M31.1 17.2C31.5 18.6 31.2 20 31.5 21.6M31.5 17.1C31.4 18.3 31.4 19.8 31.5 21.5M31.4 21.6C31.4 21.6 31.4 21.6 31.4 21.6M31.4 21.6C31.4 21.6 31.4 21.6 31.4 21.6"/>
  <path class="rough-mask" stroke="none" d="M31.4 21.6H1.2c-0.7 0 -1.2 0.5 -1.2 1.2v5.6c0 0.7 0.5 1.2 1.2 1.2h30.2v4.6c0 2.1 2.6 3.2 4.1 1.7l8.6 -8.6c0.9 -0.9 0.9 -2.5 0 -3.4l-8.6 -8.6c-1.5 -1.5 -4.1 -0.4 -4.1 1.7V21.6z"/>
</symbol>

    <use xlink:href="#rough_long-arrow-alt-right"></use>

</svg>

