<?xml version="1.0" encoding="iso-8859-1"?>
<svg version="1.1" id="Capa_1" xmlns="http://www.w3.org/2000/svg" xmlns:xlink="http://www.w3.org/1999/xlink" x="0px" y="0px"
	 viewBox="0 0 150 150" style="enable-background:new 0 0 150 150;" xml:space="preserve">
  <style> path { stroke: red; fill: red; fill-opacity: 0.4; } </style>
    

    <symbol xmlns="http://www.w3.org/2000/svg" id="rough_long-arrow-alt-left" viewBox="0 0 45 52">
  <title>long-arrow-alt-left</title>
  <path class="rough-outline" fill="none" d="M12.5 30.2M14.4 29.2C22.1 30.9 28.1 30.3 42.8 28.3M12.7 30.4C19.7 29.8 27.2 28.8 43.2 29.4M43.6 29.6C44 30.7 43.7 28.5 43.3 26.9M42.8 29.3C43.9 31.3 43.2 30.1 46.5 26.7M44.6 28.7C45.1 26.8 44.9 25.2 45.1 22.8M44.9 28.4C44.7 27 44.9 25.9 44.9 22.8M44.8 22.8C46.3 20.7 43.8 21.7 42.8 21.1M44.4 24.3C46.1 21.6 43.3 20.5 42.4 21.5M44.5 21.1C34.3 20.4 25 21.7 13.4 21.4M44.4 22.4C37.2 22.3 29.5 21 14.1 21.8M13.2 21.5C13.8 20.4 13.2 19.2 13.3 17.1M13.5 21.6C13.4 19.9 13.5 18.2 13.4 17.2M13.4 17C13.5 15.8 11.9 14.5 10.1 14.2M12.7 16.7C14.3 13.8 12.3 12.7 10.8 14M9 14.5C6.1 17.5 2.5 21.1 1.1 23.3M9.1 15.7C7.1 17.7 5.4 19.4 1.1 24M0.7 23.9C-0.8 26.2 0.3 25.1 1.7 25.9M1 24C0.6 23.7 -1.8 24.8 1.8 28.8M1.3 26.6C2.8 29.1 4.8 30.6 9.9 35.4M0.7 27.3C4.1 30.9 7.4 34.5 9.4 36M9.3 35.9C10.6 37 11.9 37.5 14.1 33.3M10 35.8C11.6 36.2 12.2 38.1 14.7 32.8M13.5 34.5C13.2 33 13.3 32 13.6 29.6M13.5 34.3C13.3 32.7 13.6 31.3 13.3 29.5M13.4 29.6C13.4 29.6 13.4 29.6 13.4 29.6M13.4 29.6C13.4 29.6 13.4 29.6 13.4 29.6"/>
  <path class="rough-mask" stroke="none" d="M13.4 29.6H43.6c0.7 0 1.2 -0.5 1.2 -1.2v-5.6c0 -0.7 -0.5 -1.2 -1.2 -1.2H13.4v-4.6c0 -2.1 -2.6 -3.2 -4.1 -1.7L0.7 23.9c-0.9 0.9 -0.9 2.5 0 3.4l8.6 8.6c1.5 1.5 4.1 0.4 4.1 -1.7V29.6z"/>
</symbol>

    <use xlink:href="#rough_long-arrow-alt-left"></use>

</svg>
