<svg width="150" height="150">
    <style> path { stroke: #000000; fill: none; } </style>

    

    <symbol xmlns="http://www.w3.org/2000/svg" id="rough_arrows-alt-h" viewBox="0 0 52 52">
  <title>arrows-alt-h</title>
  <path class="rough-outline" fill="none" d="M37.8 18.4M37.7 16.6C37.9 18.5 38.1 19.6 38 21.6M37.8 17.1C37.9 17.9 37.9 19 37.9 21.7M38.1 20.2C30.6 20.4 23.7 20.8 14.3 22.8M37 22.1C30.7 20.9 24.1 21.9 13.8 21.4M13.5 21.6C13.1 20.9 13.1 19.8 13.4 16.8M13.4 21.7C13.6 20.6 13.3 19.2 13.3 16.9M13.4 17C13.1 13.5 9.5 13.1 9.5 16.4M14.6 17.3C13.2 14.6 11.3 15 8.1 14.2M10 14.5C7.6 16.6 4.6 19 -0.1 24.6M9.7 15.6C7.1 17.9 4.9 19.8 1.1 24.3M0.7 23.9C0.4 25.4 0 26 -0.1 27.6M1.7 24.2C-0.1 23.4 -0.7 26.1 0.5 27.7M1.2 26.8C1.9 29.2 5.4 31.6 8.6 35.2M0.7 27C3 29.4 4.9 31.5 9 35.8M9.3 35.9C12 38.1 13.2 37.4 12.1 33.7M9.7 34.8C11.9 37 13.9 36.3 14.7 33.4M13.6 34.1C13.6 32.5 13.4 30.5 13.3 29.8M13.2 34.2C13.4 33.3 13.4 32.2 13.6 29.5M13.1 29.6C24 29.1 33 29.7 37.7 30.1M12.8 29.3C21.7 29.9 30.8 29.6 37.9 30.1M37.8 29.8C37.4 31.2 37.5 32.9 38 34.5M37.7 29.6C37.9 31.4 37.6 32.7 38 34.2M37.8 34.2C38.5 35.4 39.9 37.2 41.9 35.5M37.7 33.7C37 37.3 40.8 38.4 41.5 37M41.2 36.4C44.6 33.2 48.6 29.7 50.5 27.9M41.5 35.8C44.1 34 45.8 31.4 50.3 27.6M50.5 27.3C50.8 24.8 51.5 23.7 49.8 24.4M50.3 27.3C51.9 25.3 53.1 26.4 50.1 23.4M50 24.1C46.9 21.3 44.1 17.7 42.7 16M50 23.9C48.1 21 45.2 18.2 42.1 15M41.9 15.3C40.2 13.6 39.2 13.9 38.3 17.3M42 16.1C40.3 14.7 39 13.7 38.2 18.4M37.8 17C37.8 17 37.8 17 37.8 17M37.8 17C37.8 17 37.8 17 37.8 17"/>
  <path class="rough-mask" stroke="none" d="M37.8 17V21.6H13.4v-4.6c0 -2.1 -2.6 -3.2 -4.1 -1.7L0.7 23.9c-0.9 0.9 -0.9 2.5 0 3.4l8.6 8.6c1.5 1.5 4.1 0.4 4.1 -1.7V29.6h24.4v4.6c0 2.1 2.6 3.2 4.1 1.7l8.6 -8.6c0.9 -0.9 0.9 -2.5 0 -3.4l-8.6 -8.6c-1.5 -1.5 -4.1 -0.4 -4.1 1.7z"/>
</symbol>

    <use xlink:href="#rough_arrows-alt-h"></use>

</svg>
