<?xml version="1.0" encoding="iso-8859-1"?>
<svg version="1.1" id="Capa_1" xmlns="http://www.w3.org/2000/svg" xmlns:xlink="http://www.w3.org/1999/xlink" x="0px" y="0px"
	 viewBox="0 0 150 150" style="enable-background:new 0 0 150 150;" xml:space="preserve">
    <style> path { stroke: blue; fill: blue; fill-opacity: 0.4; } </style>

    <symbol xmlns="http://www.w3.org/2000/svg" id="rough_clone" viewBox="0 0 52 52">
  <title>clone</title>
  <path class="rough-outline" fill="none" d="M46.8 0.5M45 0.1C37.6 1 26.9 1.4 15.3 -1.2M46.5 -0.4C33.7 -0.5 21.6 0.8 14.8 0.1M14.4 0C12.6 0.4 10.8 3.3 9 5.7M15.8 0.3C12.6 -0.8 10 3.9 9.6 5.4M9.7 4.4C9.3 6.1 9.4 8.3 9.4 9.6M9.4 5C9.8 6.6 9.8 8.5 9.5 9.7M10 9.4C8.2 9.9 6.5 9.4 4.8 9.9M9.5 9.7C8.5 9.6 7.1 9.5 4.7 9.4M4.8 9.6C3.7 8.5 -0.5 11.3 -0.5 14.9M3.6 11.1C3.2 9.1 0.1 13.3 1.1 13.2M0.8 14.6C-1.1 23.3 1.1 34.2 1.2 45.9M0.5 14.6C-0.3 24.8 0.1 34.8 0.5 46.7M0 46.4C-1.2 49.3 1.5 49.8 3.4 52M-1.2 47.1C-0.7 50.1 3.1 51.4 5.1 51.1M5.2 52.1C15.4 50 24.1 52.1 36.4 52.6M4.9 50.4C12.2 50.7 18.7 51.5 37 51.9M36.8 51.2C40.1 51.2 41 50.5 42.7 47.3M38.1 51.5C39.4 49.6 40.4 49.8 41 46.1M41.7 46.3C41.7 44.2 41.3 42.6 41.6 41.5M41.5 46.2C41.5 45 41.6 43.5 41.4 41.8M41.8 41.5C42.7 41.6 43.3 41.9 46.6 41.9M41.4 41.7C43 41.6 44.9 41.7 46.5 41.7M46.4 41.6C50.2 41.7 50.4 40.5 50.3 36.3M47.6 40.3C49.6 41.7 51.9 40 51.5 38.6M52 36.7C52.4 26.4 52.5 14.3 50.8 5.1M50.7 37C50.9 26 51.7 14.2 51.5 5.1M51.2 4.8C52.7 0.5 48.7 0.3 45.7 0.2M50.7 5.7C51.6 0.3 49.2 0.7 46.2 1.2M37.6 45.5M35.8 47.5C27.3 47.3 15.7 45.9 5.7 47.5M36.6 47.1C23.7 46.1 12.5 46.8 6 47.2M5.4 46.4C4 47.2 5.7 44.6 4.2 46.1M4.9 47.3C4.4 45.3 5.8 47.8 4.8 44.8M5.7 45.4C3.2 37.3 5.5 27 5.9 15.3M4.3 45.3C4.5 34.9 5.3 24.7 4.1 14.7M4.8 15C5.6 14.4 5.3 15.7 5 15.9M6.4 14.9C4.4 13.8 4.7 15.2 4.5 15.8M5.2 14.1C6.7 14.6 7.7 14.1 9.8 14.3M5.4 14.4C7.1 14.2 8.5 14.4 9.7 14.5M8.3 15.2C8.3 24.3 10.5 31.2 10.3 36.3M9.8 14.6C10 20.1 10.1 24.8 8.9 36M9.6 36.8C9 38.5 11.6 40.7 15.8 42M8.8 36.6C9.5 41.3 12.7 41.3 14.2 42.3M13.9 43C18.9 42.7 22.7 41.3 38 42.1M13.8 41C23.3 42.4 30.8 41.2 36.1 41.1M36.8 41.9C36.6 42.9 36.8 44.4 36.5 45.8M36.9 41.7C36.6 42.4 36.9 43.5 36.7 45.7M36.8 45.8C36.9 45.4 36.6 47.4 35.8 45.4M37 45.2C37.3 45.6 38.1 46.5 34.6 45.4M36.2 46.4C36.2 46.4 36.2 46.4 36.2 46.4M36.2 46.4C36.2 46.4 36.2 46.4 36.2 46.4M44.3 37M45 35.7C36.8 35.8 24.6 35.5 16.5 36M45.3 36.1C34 37 24.3 36.4 14.4 37.2M15 36.8C15.8 36.7 14.9 36.4 15.8 36.7M13.8 37C16.2 37 15.4 38.2 15.8 36.4M15.6 36.6C15.4 26 15.1 13.2 15.2 4.1M14 35.5C14.4 28.6 14.4 23.1 14.9 5.7M14.4 5.4C15.9 5.7 15 3.6 16.2 6.1M14.3 6.9C16 6.7 14.8 6.2 15.8 5.5M13.6 4.6C22.6 4.1 32.1 6.2 44.6 4.1M14.9 4.8C25.3 4.2 35.9 5.3 45.7 5M45.8 4.8C45 4.3 47.1 4.2 45.5 6.4M46 5.5C44.4 5.2 47.8 4.3 46.8 4.7M45.6 6.8C48 13.6 46.4 22.9 45.1 37.7M47.2 4.9C46.5 17.9 45.8 30.2 46.1 36.5M46.4 36.2C46.2 37.1 47 37.4 47.3 36.1M45.9 34.9C47.1 37.2 46.5 37 44.9 35.2M45.8 36.8C45.8 36.8 45.8 36.8 45.8 36.8M45.8 36.8C45.8 36.8 45.8 36.8 45.8 36.8"/>
  <path class="rough-mask" stroke="none" d="M46.4 0H14.4c-2.7 0 -4.8 2.1 -4.8 4.8v4.8H4.8c-2.7 0 -4.8 2.1 -4.8 4.8v32c0 2.7 2.1 4.8 4.8 4.8h32c2.7 0 4.8 -2.1 4.8 -4.8v-4.8h4.8c2.7 0 4.8 -2.1 4.8 -4.8V4.8c0 -2.7 -2.1 -4.8 -4.8 -4.8zM36.2 46.4H5.4a0.6 0.6 0 0 1 -0.6 -0.6V15a0.6 0.6 0 0 1 0.6 -0.6h4.2v22.4c0 2.7 2.1 4.8 4.8 4.8h22.4v4.2a0.6 0.6 0 0 1 -0.6 0.6zm9.6 -9.6H15a0.6 0.6 0 0 1 -0.6 -0.6V5.4a0.6 0.6 0 0 1 0.6 -0.6h30.8a0.6 0.6 0 0 1 0.6 0.6v30.8a0.6 0.6 0 0 1 -0.6 0.6z"/>
</symbol>

    <use xlink:href="#rough_clone"></use>

  </svg>
