<?xml version="1.0" encoding="iso-8859-1"?>
<svg version="1.1" id="Capa_1" xmlns="http://www.w3.org/2000/svg" xmlns:xlink="http://www.w3.org/1999/xlink" x="0px" y="0px"
	 viewBox="0 0 150 150" style="enable-background:new 0 0 150 150;" xml:space="preserve">
    <style> path { stroke: blue; fill: blue; fill-opacity: 0.4; } </style>

    

    <symbol xmlns="http://www.w3.org/2000/svg" id="rough_times" viewBox="0 0 36 52">
  <title>times</title>
  <path class="rough-outline" fill="none" d="M24.9 24.5M24.5 25.3C27 22.5 29.3 19.9 35.1 15M24.5 26.1C26.9 23.1 29.7 20.1 34.4 15.8M34.3 15.6C34.4 14.3 34.5 12.2 34.9 10.1M35.1 16C34.1 14.1 35 10.6 35.6 9.5M34.4 11.4C33.8 10.6 33.3 10.2 31.9 9.2M34.2 11.2C33.3 10.3 32.7 9.5 32.2 9M32.1 9C31.4 6.5 28.7 7 29.3 9.2M32.5 7.7C31.9 7 28.4 7.6 26 10.2M27.1 9.2C23.6 13 20.9 14.3 17 19.2M27.8 8.9C25.2 11.3 22.8 14.1 17.9 19.1M17 19.4C13.6 15 11.5 10.8 6.9 8.6M17.4 19C14.2 15.8 10.8 11.7 8.1 8.5M7.6 8.9C7.4 7.6 6 6.6 3.5 9.6M6.8 8C7.3 9.4 3 8 2.2 10.6M3.1 9C2.6 9.5 2 10 0.8 11.2M3.1 9C2.5 9.7 1.7 10.3 0.9 11.1M0.9 11.1C0.1 12.9 0.8 13 0.1 16.3M-0.5 12.4C0.4 12.2 -1.2 12.6 1.7 13.8M1.7 14.5C2.4 16.9 5.8 20.2 10 26.6M0.8 15.5C4.6 19.3 8.8 23.9 10.4 26.1M11.7 25.5C6.3 30.5 2.9 33.3 -0.2 34.7M11.2 25.2C9 28.4 6.7 30.3 0.9 35.6M0.9 35.6C0.8 36.3 0.5 38.1 0.5 39.6M0.3 35.9C-0.2 35 -0.1 37.9 -0.3 38.2M0.7 40C1.3 40.4 2.3 41.3 2.9 42.4M0.8 39.9C1.5 40.6 1.9 41.1 3.1 42.3M3.1 42.2C3.8 42.2 5.5 44.6 7.3 41.3M3.3 43.7C4.2 42.7 6 43.5 6.2 41.5M7.8 41.3C9.7 40.8 12.1 38.5 17.2 31.7M7 42C10.8 39.1 13.9 35.4 17.2 32.1M18.2 31.3C21.1 34.9 21.7 37.4 26.5 42.3M17.9 32C21.2 36.1 25 40.3 27.1 42.3M27.6 42.3C29.4 43.3 30.6 43.8 32.5 41M26.6 42.8C30.6 43.9 32.4 44.4 31.4 43.7M31.8 42.4C32.4 41.7 32.8 41.3 34.3 40.2M32 42.3C32.4 41.8 32.9 41.3 34.3 40M34.2 40.1C34.3 37.9 36.1 37.9 34.1 34.6M35.3 39.3C36.5 38.2 36.7 38.5 33.8 35.7M34.6 36.7C30.4 31.1 28 28.6 23.5 25.9M34.6 35.8C30.6 32.5 27.1 28.3 24.1 25.9M24.3 25.6C24.3 25.6 24.3 25.6 24.3 25.6M24.3 25.6C24.3 25.6 24.3 25.6 24.3 25.6"/>
  <path class="rough-mask" stroke="none" d="M24.3 25.6l10 -10c1.2 -1.2 1.2 -3.2 0 -4.4l-2.2 -2.2c-1.2 -1.2 -3.2 -1.2 -4.4 0L17.6 18.9 7.6 8.9c-1.2 -1.2 -3.2 -1.2 -4.4 0L0.9 11.1c-1.2 1.2 -1.2 3.2 0 4.4L10.9 25.6 0.9 35.6c-1.2 1.2 -1.2 3.2 0 4.4l2.2 2.2c1.2 1.2 3.2 1.2 4.4 0L17.6 32.3l10 10c1.2 1.2 3.2 1.2 4.4 0l2.2 -2.2c1.2 -1.2 1.2 -3.2 0 -4.4L24.3 25.6z"/>
</symbol>

    <use xlink:href="#rough_times"></use>

  </svg>
