<?xml version="1.0" encoding="iso-8859-1"?>
<svg version="1.1" id="Capa_1" xmlns="http://www.w3.org/2000/svg" xmlns:xlink="http://www.w3.org/1999/xlink" x="0px" y="0px"
	 viewBox="0 0 150 150" style="enable-background:new 0 0 150 150;" xml:space="preserve">
    <style> path { stroke: red; fill: none; } </style>

    

    <symbol xmlns="http://www.w3.org/2000/svg" id="rough_minus" viewBox="0 0 45 52">
  <title>minus</title>
  <path class="rough-outline" fill="none" d="M42 19.3M40.2 21.2C31.2 20.7 21 21.7 2.2 22M41.1 21.4C27 21.9 11.3 21.5 3.5 21.1M3.2 20.8C1 21.3 -0.4 22.5 0.7 22.7M2.3 19.3C1.4 20.6 -0.4 20.4 -1.3 22.4M0.1 24.1C0 25.4 0 26.3 0.2 27.3M0 23.9C0.1 25 0.1 26.3 0.1 27.1M0 27.2C0.8 28.6 1.8 29 2.8 31M-1.3 26.6C-0.7 30.8 2.3 30.5 3.7 29.7M3.3 29.7C16.8 31.1 29.3 29.1 42.6 30.6M3.6 29.9C14.5 30.5 26.7 31.4 41.2 30.1M41.6 30.4C43.7 31.6 44.3 28.1 43.5 28.4M40.3 31C42.3 28.8 46.4 29.1 46.2 28.4M44.9 27.1C44.9 26.3 44.6 25.6 44.8 23.8M44.9 27.3C44.8 26.3 44.8 25.5 44.9 24.1M44.8 24C44 20.9 42.1 21.2 40.9 20.6M45 25.3C43.1 22.1 43.5 19.3 41.4 20M41.6 20.8C41.6 20.8 41.6 20.8 41.6 20.8M41.6 20.8C41.6 20.8 41.6 20.8 41.6 20.8"/>
  <path class="rough-mask" stroke="none" d="M41.6 20.8H3.2c-1.8 0 -3.2 1.4 -3.2 3.2v3.2c0 1.8 1.4 3.2 3.2 3.2h38.4c1.8 0 3.2 -1.4 3.2 -3.2v-3.2c0 -1.8 -1.4 -3.2 -3.2 -3.2z"/>
</symbol>

    <use xlink:href="#rough_minus"></use>

</svg>
