<?xml version="1.0" encoding="iso-8859-1"?>
<svg version="1.1" id="Capa_1" xmlns="http://www.w3.org/2000/svg" xmlns:xlink="http://www.w3.org/1999/xlink" x="0px" y="0px"
	 viewBox="0 0 150 150" style="enable-background:new 0 0 150 150;" xml:space="preserve">
    <style> path { stroke: blue; fill: blue; fill-opacity: 0.4; } </style>

    

    <symbol xmlns="http://www.w3.org/2000/svg" id="rough_expand" viewBox="0 0 45 52">
  <title>expand</title>
  <path class="rough-outline" fill="none" d="M0.4 19.6M-0.8 18.6C-0.4 12.7 0 8.8 -0.4 5.1M0 18.5C0.3 13.3 0.1 8.7 0.4 5.2M0 5.6C-1 3.2 2.7 2.9 1.3 3.8M0.6 4.6C-0.3 3 2.3 2.3 1.2 2.9M3.1 4C4.7 3.2 9.3 3.3 14.7 4.1M2.6 3.7C6.3 3.1 9.2 3.3 14.9 3.1M14.8 3.2C15.4 4.3 15.9 2.5 14.7 5.7M14.2 4.2C17 4.8 16.4 3.6 14.5 5.1M15.7 4.2C16.3 5.8 16.3 7.5 16.1 8.1M16 4.5C16.1 5.4 15.9 6.3 16.1 8.3M16 8.4C15.8 7.8 15.1 10.1 14.7 9.7M15.4 9.4C14.7 8.3 16.9 9.4 13.8 9.9M14.2 10C12.9 9.2 11.3 10.2 6.1 10.1M15.1 9.5C12.9 9.8 10.7 9.8 6.4 9.6M6.1 9.7C6.4 13.4 6.4 16.5 6.7 18.5M6.2 9.5C6.7 13.2 6.4 16.2 6.3 17.8M6.4 18C5.2 17.9 6.8 19.9 3.8 19.5M5.1 19.3C5.1 18 5.5 18.3 4.8 20.1M5 19.2C3.6 19.3 2.2 19.2 1 19.4M5.2 19.1C4.3 19.2 3.4 19.1 1.3 19.1M1.2 19.2C-0.4 20.1 1.1 17.7 -1.2 16.6M2 17.6C-1.1 18.2 -0.8 19.5 -1.4 18.3M0 18C0 18 0 18 0 18M0 18C0 18 0 18 0 18M29.4 4.6M28.6 4.2C28.7 5.7 28.9 6.3 28.9 8.4M28.7 4.4C28.7 5.9 28.8 7.4 28.9 8.3M28.8 8.4C28.2 8 30.1 10.2 31.6 9M29.7 7.9C29.7 7.7 28.8 11.2 31.6 9.4M29.3 9.4C32.2 8.9 34.4 9.7 38.9 9.9M30.2 9.6C32.4 9.5 34.7 9.8 38.6 9.9M38 9.1C37.8 11.7 38.3 14.3 38.7 18.4M38.5 9.5C38.2 12.7 38.4 16 38.4 17.8M38.4 18C38.7 18.4 37.6 18.4 40.9 18.3M38.8 18.2C38.5 17 37.3 20.9 39.4 17.5M39.4 19.2C40.7 19.1 42.1 19.3 43.9 19.3M39.7 19.1C40.5 19.2 41.6 19.3 43.6 19.1M43.6 19.2C44.9 18.3 44.9 20 45.6 18M42.9 20.2C43.1 20.3 43.4 20.2 45.5 16.2M45.3 17.2C45.7 15.6 45 11.5 44.5 4.8M45 18.1C45.1 12.8 45 8.5 44.8 5.5M44.8 5.6C43.5 3.8 44.9 2.3 44 3.6M46.2 4.6C46.5 4.6 42.9 2.3 40.9 3.8M42 3.3C38.3 3 33.9 2.5 30.1 4M42.6 3.4C39.9 3.2 36.5 3.1 29.8 3.2M30 3.2C30.6 1.9 29.4 5.3 27.7 4.7M30.4 2.9C30.2 3.1 28.1 3.3 27.4 4.8M28.8 4.4C28.8 4.4 28.8 4.4 28.8 4.4M28.8 4.4C28.8 4.4 28.8 4.4 28.8 4.4M44.3 33M43.4 32.1C42.6 32.2 41.2 31.9 39.3 32.1M43.6 32C42.1 31.9 40.7 31.9 39.6 31.9M39.6 32C39.5 31.3 39.6 33.2 38.2 32M38.1 33.3C37.1 31.2 38 32.7 40 31.7M38.5 32.6C37.8 37.1 37.8 39.9 38.8 41.2M38.4 33.1C38.7 35.5 38.1 38.3 38.6 41.9M38.5 42.1C36.2 41.8 34.6 42 29.9 41.1M38.3 41.9C35.3 41.8 32.1 41.8 29.7 41.7M30 41.6C28.8 41.8 30.4 43.1 27.3 42.6M29.4 42.2C30.1 43 28.7 42.7 27.5 42M28.8 42.5C28.5 44.1 28.8 45.3 29 46.9M28.7 42.8C28.7 43.9 28.9 45.2 28.7 46.7M28.8 46.8C27.4 48.1 29.9 48.4 29.9 46.4M30.1 46.8C29.1 47 28.8 47.8 29.6 49M30.2 48.2C34.8 48 40.5 48.9 43.1 47.5M30.1 48.3C33.7 48.3 36.8 48.4 42.3 47.9M42.4 48C44.9 48.7 44.1 46 45 46.3M43.2 49.2C43.9 46.5 44.5 47.2 43.2 46.7M45.5 46.1C45.5 42.7 44.2 38.4 45.7 32.7M44.5 45.4C44.5 41.8 44.5 37.9 44.7 33.6M44.8 33.2C45.1 31.6 43.6 31.7 44 32.4M44.7 34.6C45.4 33.4 46 30.5 45.2 33.8M43.6 32C43.6 32 43.6 32 43.6 32M43.6 32C43.6 32 43.6 32 43.6 32M16.2 46.4M15.7 47C16 45.9 15.7 45 16.3 42.7M16.1 46.8C16.1 45.8 15.9 44.8 16.1 42.7M16 42.8C17.6 42.5 14.9 40.3 13.9 42.4M15.1 42.2C16.5 43.6 14.1 41.7 14.7 41.3M14.4 41.5C12 41.3 10.1 41.3 6 42.1M14.7 41.4C11.6 41.5 8.4 41.6 6.7 41.9M5.8 41.7C6.8 39.2 6.2 36.4 7 33.5M6.1 41.8C6.7 39.5 6.7 38.2 6.2 33.1M6.4 33.2C6.5 33.5 5 32.3 4.8 30.6M5 32.2C5.2 33.9 7.7 31.2 5.7 33.2M5.4 32C4.1 32.2 3.2 32.1 1.3 32.2M5.3 31.9C4.3 32.1 3.7 31.8 1.1 32M1.2 32C0.2 31.5 -0.5 33.2 1.6 34.3M0.2 33.4C0.4 31.7 1.4 31.1 -1.7 33.6M-0.7 33C-0.2 37.1 -0.5 41.4 0.8 45.2M0 33.3C0 36 -0.3 39.8 0.1 45.7M0 45.6C0.5 47.2 0.1 47.1 1 47.4M0.3 46.4C1.3 48 1 46.7 1.2 47M1.9 47.5C7.5 47.9 11.9 47.3 14.7 47.4M2.8 47.5C5.2 48 8 48.1 14.8 47.6M14.8 48C16.1 48.3 16.2 47.8 15.4 47.4M15.8 47.9C14.6 48.4 16.6 45.8 16.8 45.9M16 46.8C16 46.8 16 46.8 16 46.8M16 46.8C16 46.8 16 46.8 16 46.8"/>
  <path class="rough-mask" stroke="none" d="M0 18V5.6c0 -1.3 1.1 -2.4 2.4 -2.4h12.4c0.7 0 1.2 0.5 1.2 1.2v4c0 0.7 -0.5 1.2 -1.2 1.2H6.4v8.4c0 0.7 -0.5 1.2 -1.2 1.2H1.2c-0.7 0 -1.2 -0.5 -1.2 -1.2zM28.8 4.4v4c0 0.7 0.5 1.2 1.2 1.2h8.4v8.4c0 0.7 0.5 1.2 1.2 1.2h4c0.7 0 1.2 -0.5 1.2 -1.2V5.6c0 -1.3 -1.1 -2.4 -2.4 -2.4H30c-0.7 0 -1.2 0.5 -1.2 1.2zm14.8 27.6h-4c-0.7 0 -1.2 0.5 -1.2 1.2v8.4h-8.4c-0.7 0 -1.2 0.5 -1.2 1.2v4c0 0.7 0.5 1.2 1.2 1.2h12.4c1.3 0 2.4 -1.1 2.4 -2.4V33.2c0 -0.7 -0.5 -1.2 -1.2 -1.2zM16 46.8v-4c0 -0.7 -0.5 -1.2 -1.2 -1.2H6.4v-8.4c0 -0.7 -0.5 -1.2 -1.2 -1.2H1.2c-0.7 0 -1.2 0.5 -1.2 1.2v12.4c0 1.3 1.1 2.4 2.4 2.4h12.4c0.7 0 1.2 -0.5 1.2 -1.2z"/>
</symbol>

    <use xlink:href="#rough_expand"></use>

  </svg>
